<svg xmlns="http://www.w3.org/2000/svg" xmlns:xlink="http://www.w3.org/1999/xlink" width="595" height="842" fill="none" viewBox="0 0 595 842"><g clip-path="url(#a)"><path fill="#D6C9C0" d="M0 0H595V842H0z"/><g clip-path="url(#b)" opacity=".1"><path fill="url(#c)" d="M0 0H595V333H0z"/><path fill="url(#d)" d="M0 0H595V333H0z" transform="matrix(1 0 0 -1 0 333)"/></g><g fill="#1E3446" clip-path="url(#e)"><path d="M534.6 83.2h-1.4v4.5h4.3l-1.1-.7c-1-.8-1.7-2.1-1.8-3.8ZM513 70.5v15.2c0 .5 0 .9-.2 1.2 0 .3-.3.6-.5.8h2.3a17.4 17.4 0 0 0 .1-2.6V73.8l.6.9.6.7 9.2 12.3h3.3V69.6c.2-.5.3-.8.6-1 .3-.3 6.6-.5 7.2-.5V67h-11.6v1.5h2.1v16.3h-.1a32.3 32.3 0 0 1-1.7-2.2L514.8 69H511v1.6l1-.1h1ZM506.4 86a3 3 0 0 1-1.4 1.4l-1 .3h4l.2-4.2h-1.3c0 1-.2 2-.5 2.6Z"/><path d="M533.4 72.1a5.6 5.6 0 0 0 .2 4.2c.4.6.8 1.2 1.4 1.7l2 1.4a37.6 37.6 0 0 0 4.6 2.2c.7.4 1.3.8 1.8 1.4.4.5.7 1.2.7 2a3 3 0 0 1-.5 1.7l-1.1 1h3.1l.6-.6c.5-.9.8-1.8.8-3a5 5 0 0 0-2-4.1 32.8 32.8 0 0 0-4.3-2.4l-2.4-1.2a6 6 0 0 1-1.7-1.4c-.5-.5-.7-1.1-.7-1.9 0-.8.3-1.5 1-2.1.6-.6 1.5-1 2.5-1 1.1 0 2 .3 2.7.7.7.5 1.3 1.2 1.7 2 .4.7.6 1.6.7 2.6h1.3v-6.5h-1.7l.1 1.2c-.7-.5-1.5-.9-2.5-1.1a11 11 0 0 0-2.4-.3c-1.2 0-2.2.2-3 .5a5 5 0 0 0-3 3ZM480.7 77.9h-1.3c0 1.6-.3 8-1 8.8-.4.5-1 .8-1.6 1h3.8l.1-9.8ZM466.4 70.7a64.4 64.4 0 0 0-.1 2.3v13.6c-.1.5-.3.8-.6 1v.1h3.6l.1-.8V72c.1-.4.3-.8.6-1 .3-.3 2.9-.4 3.5-.4v-1.3H462v1.6h3.4l1-.1ZM485 68a63.3 63.3 0 0 0-.2 2.2v16.4c-.2.5-.3.8-.6 1v.1h3.6V71l.2-1.7c0-.5.3-.8.6-1 .2-.3 3-.4 3.6-.5v-1.2h-10.6V68l2.2-.1h1.1ZM492.2 70.7l1.8-.1h1a64.4 64.4 0 0 0 0 2.2v12l-.1 1.8c0 .5-.3.8-.6 1v.1h3.7v-8.1l1.7-.1a8 8 0 0 1 1.8 0c.5.1.9.4 1.1.7.2.4.4 1 .4 1.8h1.2v-6.4h-1.6l.2 2.5h-4.7v-4.6l.1-1.8c.1-.4.3-.8.6-1 .3-.2.8-.3 1.4-.3h2c.6 0 1.3 0 1.8.2.6.2 1 .6 1.4 1.2.4.6.5 1.4.5 2.5h1.3l-.1-5.2h-14.9v1.5ZM524.6 91.5h1l1.1-.1v14.2h-.1a31.8 31.8 0 0 1-1.7-2.3L514.8 90H511v1.6h1l1-.1v17c0 .5 0 1-.2 1.3-.1.3-.3.6-.6.8-.2.2-4 .3-4.6.3v1.3h14v-1.6h-5.9l-1 .1a21.9 21.9 0 0 0 0-2.8V94.7l.6.8.6.8 8.2 11h4.3V92.6c.2-.4.3-.8.6-1a16 16 0 0 1 3.5-.4v-1.3h-7.9v1.6ZM396.2 108.7l.1-1V94.4l.1-6c.1-.4.3-.8.6-1 .3-.3 2.9-.4 3.5-.4v-1.3H389v1.6h3.3l1-.1V89.9h-10.5a277.4 277.4 0 0 1-5.7 14.5l-.7 2h-.1a58.2 58.2 0 0 0-2-5l-4.8-11.5h-5v1.6a25.8 25.8 0 0 1 2-.1V93.8l-.5 16.6c0 .6 0 1-.2 1.5 0 .4-.3.6-.6.8l-1.2.4v1.2h9.4v-1.6h-4.6l-1.1.1a16.6 16.6 0 0 0 .1-2.5v-6.6l.1-2.7v-2.5l.1-2.1v-2.8a60 60 0 0 0 2.2 6l2.4 5.4 2.3 5.5h1.5l6.2-15.8.2-.5.2-.4v1.3l.1 1.2v1l.5 8.5v1.5h3v-.7l-.7-12.5.1-1.8c.2-.4.4-.7.7-.9l6.6-.2v14.5l-.1 1.8c-.1.4-.3.8-.6 1-.3.3-.7.4-1.4.4v1.3h10.9v-1.6h-4.8l-1 .1ZM446.7 108.6a27.5 27.5 0 0 1-2.2 0c.2-.2.3-.6.4-1l.4-1 .8-2.5 7-.2h.1l.9 2.3.3 1.3c0 .4 0 .7-.3 1-.2.3-.7.4-1.3.4v1.3h7v-1.6a26.8 26.8 0 0 1-1.9.1c0-.4 0-1-.3-1.6l-.5-1.5-.6-1.7h4.5v-1.3h-5l-5.2-13.2h-1.2l-5.8 16a69.4 69.4 0 0 1-1.5 3c-.3.3-.7.5-1.3.5v1.3h5.7v-1.6Zm1.7-11.2.7-2 .5-1.5a60.8 60.8 0 0 0 1.3 3.7l1.8 4.9h-6l1.8-5.1ZM545 100.8l-2-1.3a30.6 30.6 0 0 1-4.7-2.3 6 6 0 0 1-1.7-1.3c-.5-.5-.7-1.2-.7-2s.3-1.5 1-2c.6-.7 1.5-1 2.5-1 1.1 0 2 .2 2.7.7.7.5 1.3 1.1 1.7 1.9.4.8.6 1.7.7 2.7h1.3v-6.5h-1.7l.1 1.2c-.7-.6-1.6-1-2.5-1.1a11 11 0 0 0-2.4-.4c-1.2 0-2.3.2-3 .6a5 5 0 0 0-3.2 4.7 5.3 5.3 0 0 0 2 4.2 38.3 38.3 0 0 0 6.6 3.5l1.7 1.4c.4.6.7 1.2.7 2a3 3 0 0 1-.5 1.8c-.4.5-.9.9-1.5 1.1-.5.3-1.2.5-2 .5-1.4 0-2.7-.5-3.7-1.3-1-.9-1.7-2.2-1.8-3.8h-1.4l.1 6.3h1.8l-.2-1.2a9.7 9.7 0 0 0 5.1 1.5c1.5 0 2.7-.3 3.8-.8a5.2 5.2 0 0 0 3.2-4.9 5 5 0 0 0-2-4.1Z"/><path d="m440.3 111.4-1-1.4-4.4-6.6-1-1.3c-.3-.4-.6-.8-1-1a8 8 0 0 0 3.1-1.3 5.2 5.2 0 0 0 2.1-4.4 5 5 0 0 0-.8-3 5.4 5.4 0 0 0-2.6-2c-1.2-.3-2.7-.5-4.5-.5a157 157 0 0 0-7.2 0v1.6h1l1.1-.1v8.8h-11v1.6h2v5.9c-.5.3-1 .6-1.5.7a10.2 10.2 0 0 1-3.2.6c-1.4 0-2.7-.4-3.8-1.2-1-.8-1.9-1.9-2.5-3.3a12 12 0 0 1-.9-4.7c0-1.3.2-2.4.5-3.5.4-1 .9-2 1.5-2.8.6-.8 1.3-1.5 2.2-2a6.5 6.5 0 0 1 5.6 0c.8.5 1.5 1 2 1.9a6 6 0 0 1 1 3h1.4v-6.8h-1.8l.1 1.4c-.5-.4-1.1-.6-1.8-.9a12.3 12.3 0 0 0-4-.7c-1.7 0-3.2.3-4.4 1a9.2 9.2 0 0 0-3.2 2.5c-.8 1-1.4 2.3-1.9 3.5a13 13 0 0 0 .6 9.4c.8 1.5 2 2.7 3.5 3.6 1.5.8 3.2 1.2 5.1 1.2a12.9 12.9 0 0 0 4.3-.7 15 15 0 0 1 1.8-.5c.6-.2 1-.2 1.4-.2h.8v-5.6l.3-1c.1-.3.3-.6.6-.8.3-.2 4.4-.3 5.2-.3v5.7h3v-5.7h2l.8 1.1.8 1.3 4.7 7a38 38 0 0 0 2.4 3h30.6v-1.2c-.5 0-27.6-.1-28-.3l-1-1Zm-10.5-11.3H428v-5.8l.1-1.7c0-.4.3-.8.5-1 .3-.2.8-.3 1.4-.3a8 8 0 0 1 1.9.2c.6.1 1 .4 1.5.7l1 1.3c.2.6.3 1.2.3 2 0 1-.2 2-.6 2.6-.4.7-1 1.2-1.7 1.5-.8.3-1.7.5-2.7.5ZM483.7 115.7V94.4l.2-1.8c0-.4.2-.8.5-1 .3-.3 3-.4 3.5-.4v-1.3h-10.4v1.6h2.2l1.1-.1a64.4 64.4 0 0 0 0 2.2v19l-.2 1.8c0 .5-.3.8-.5 1-.3.3-.8.4-1.4.5v1.2H490v-1.6h-5.2l-1.1.2Z"/><path d="M508.5 100a11.5 11.5 0 0 0-2.5-7 9 9 0 0 0-3.1-2.6c-1.3-.6-2.8-1-4.6-1a9.5 9.5 0 0 0-7.6 3.5 11.6 11.6 0 0 0-2 10.9c.5 1.3 1 2.4 1.9 3.5.8 1 1.9 1.8 3.2 2.4 1.3.7 2.8 1 4.7 1a9.4 9.4 0 0 0 7.6-3.5c.8-1 1.4-2.2 1.8-3.5.4-1.2.6-2.5.6-3.7Zm-3.8 3.6c-.3 1-.7 2-1.2 2.8-.5.8-1.2 1.5-2 2s-1.8.8-2.9.8c-1.2 0-2.3-.4-3.2-1a7.1 7.1 0 0 1-2.1-2.3c-.6-1-1-2-1.3-3.1a13.5 13.5 0 0 1 0-6.3c.3-1 .7-2 1.2-2.8.5-.8 1.2-1.5 2-2s1.8-.8 3-.8c1 0 2 .3 3 .8.8.5 1.5 1.3 2.1 2.2.6.9 1 2 1.3 3a14.8 14.8 0 0 1 0 6.7ZM469.3 108.7v-1l.1-1.4v-15h2.1c1 0 1.7 0 2.2.5.5.3.9.9 1.1 1.6.3.8.4 1.7.4 2.8h1.4l-.2-6.3h-17l-.2 6.3h1.3c0-1.7.3-3 .8-3.7.6-.8 1.4-1.2 2.6-1.2h2.4v16.2c-.2.4-.3.8-.6 1-.3.2-.7.4-1.4.4v1.3h14v-1.6h-7.8l-1.2.1ZM384 114.3v-1.5H431v1.5H384ZM406 87v-1.5h55v1.6h-55ZM525 112.2v-2h3.6v2H525Z"/></g><g clip-path="url(#f)"><path fill="#1E3446" d="M116 760.8h-.1v-6h1v5.1h3V760.9H116ZM123.4 756.4h1V760.9h-.9v-.3h-.1c-.3.2-.6.4-1.1.4-.5 0-.8-.1-1.1-.4-.3-.2-.5-.6-.5-1v-3.1h1v2.7l.2.7.6.2c.3 0 .5 0 .7-.2l.2-.7v-2.7ZM125.2 760.8l1.4-2.2-1.4-2.1v-.1h1l1 1.4.9-1.4h1.1v.1l-1.4 2v.1l1.4 2.1v.1h-1l-1-1.4-1 1.4h-1ZM133.5 758.6v.3H130.7v.5c.1.4.5.7 1 .7.4 0 .7-.2 1-.5h.1l.6.4v.1c-.2.3-.4.5-.7.6-.3.2-.7.2-1 .2a2 2 0 0 1-1.2-.3l-.7-.8-.2-1.3.1-.9c.1-.4.3-.7.7-1a2 2 0 0 1 1.1-.3c1.2 0 1.8.6 2 1.8v.5Zm-2.5-1.3-.3.5v.4h1.7v-.4c0-.2-.1-.3-.3-.5a1 1 0 0 0-.6-.1l-.5.1ZM140.3 756.7c.2.3.3.7.3 1.1v3h-.9V758c0-.3-.1-.5-.3-.7a.7.7 0 0 0-.6-.2c-.2 0-.4 0-.5.2l-.3.6V760.8h-.9V758c0-.3-.2-.5-.3-.7a.7.7 0 0 0-.6-.2c-.2 0-.4 0-.5.2-.2.1-.2.3-.3.5v2.9h-.9V756.3h.9v.4l.6-.4.6-.1c.3 0 .5 0 .7.2.3 0 .4.3.5.5h.1c.1-.3.3-.4.5-.5l.8-.2c.4 0 .8.1 1 .4ZM145.6 758.6c0 .4 0 .8-.2 1-.1.5-.3.8-.6 1-.3.2-.7.3-1 .3-.5 0-.8-.1-1-.5h-.1v.4h-1v-6h.9v2h.1c.3-.3.6-.5 1-.5s.8.1 1 .3c.4.2.6.5.7 1l.2 1Zm-1 0c0-.4-.2-.8-.3-1a.8.8 0 0 0-.7-.4c-.3 0-.5.1-.7.4a2 2 0 0 0-.2 1c0 .5 0 .8.2 1 .1.3.4.4.7.4h.4l.3-.4c.2-.2.2-.6.2-1ZM147.2 760.6c-.3-.3-.6-.6-.7-1l-.1-1 .1-1c.1-.4.4-.7.7-1a2 2 0 0 1 1.2-.3c.5 0 .8.1 1.1.4.4.2.6.5.7.9l.2 1c0 .4 0 .7-.2 1a2 2 0 0 1-.6 1 2 2 0 0 1-1.2.3 2 2 0 0 1-1.2-.3Zm1.7-.7.4-.6V758a.9.9 0 0 0-1-.7c-.2 0-.3 0-.5.2a1 1 0 0 0-.3.5l-.1.7v.7l.4.6.6.1.5-.1ZM154 756.4h.9V760.9h-.9v-.3c-.3.2-.7.4-1.2.4-.4 0-.8-.1-1-.4-.4-.2-.5-.6-.5-1v-3.1h.9v2.7c0 .3.2.5.3.7l.6.2c.3 0 .5 0 .6-.2.2-.2.3-.4.3-.7v-2.7ZM158.6 756.4v1h-.7a1 1 0 0 0-.6.2c-.2.2-.2.4-.2.7v2.5h-1V756.3h.9v.5h.1c.3-.4.6-.6 1-.6l.5.1ZM162 756.4h.9v4.1c0 .8-.2 1.3-.6 1.6-.4.3-1 .5-1.7.5h-.5V761.6h.5c.5 0 .8-.1 1-.3.2-.2.3-.5.3-.9-.3.2-.6.3-1 .3a2 2 0 0 1-1.1-.3c-.3-.2-.6-.5-.7-.9v-2.1a1.6 1.6 0 0 1 1.7-1.2c.4 0 .8.1 1 .4v-.2h.1v-.1Zm-.1 2.7v-1.3l-.4-.4a.9.9 0 0 0-.5-.2c-.2 0-.4 0-.5.2a1 1 0 0 0-.4.4v1.6l.3.4.6.2c.2 0 .4 0 .5-.2.2 0 .3-.2.3-.4v-.3ZM166.7 760.7c-.4-.2-.6-.5-.8-.8-.2-.3-.3-.6-.3-1v-2.2c0-.4.1-.8.3-1 .2-.4.4-.6.8-.8.3-.2.7-.2 1.1-.2.5 0 .8 0 1.2.2.3.2.6.4.7.7.2.3.3.6.3 1l-.1.1h-.9c0-.4-.1-.6-.3-.9-.2-.2-.5-.3-.9-.3-.3 0-.6.1-.8.4-.2.2-.4.4-.4.8v2.2c0 .3.2.6.4.8.2.2.5.3.8.3.4 0 .7 0 .9-.3.2-.2.3-.4.3-.8h1c0 .4 0 .8-.3 1-.1.4-.4.6-.7.8l-1.2.2c-.4 0-.8 0-1.1-.2ZM174.8 758.6v.3h-2.9v.5c.2.4.5.7 1 .7s.8-.2 1-.5h.1l.6.4v.1c-.1.3-.4.5-.7.6-.3.2-.6.2-1 .2a2 2 0 0 1-1.1-.3c-.4-.2-.6-.5-.7-.8-.2-.3-.2-.8-.2-1.3v-.9l.7-1a2 2 0 0 1 1.2-.3c1.2 0 1.8.6 2 1.8v.5Zm-2.5-1.3c-.2.1-.3.3-.3.5l-.1.4h1.8v-.4c0-.2-.2-.3-.3-.5a1 1 0 0 0-.6-.1l-.5.1ZM179 756.7c.2.3.4.7.4 1.2v2.9h-1V758c0-.3-.1-.5-.3-.7a.8.8 0 0 0-.6-.2c-.2 0-.4 0-.6.2a1 1 0 0 0-.2.7v2.7h-1V756.3h1v.4c.3-.3.6-.5 1.1-.5.5 0 .9.1 1.2.4ZM182.8 757.2h-1v2.2l.1.4.5.2H182.7V761h-.5c-.5 0-.8-.1-1-.3-.3-.1-.4-.4-.4-.9v-2.5h-.6V756.4h.6v-1.1l.1-.1h.8v1.1h1.1V757.2ZM186.3 756.4v.2l-.1.8h-.6a1 1 0 0 0-.7.2l-.2.7v2.5h-1V756.3h1v.5c.3-.4.6-.6 1-.6l.6.1ZM190.7 758.6v.3h-2.9v.5c.2.4.6.7 1 .7.5 0 .8-.2 1-.5h.1l.6.4v.1c-.1.3-.4.5-.7.6-.3.2-.6.2-1 .2a2 2 0 0 1-1.1-.3c-.3-.2-.6-.5-.7-.8-.2-.3-.2-.8-.2-1.3v-.9l.7-1a2 2 0 0 1 1.2-.3c1.2 0 1.8.6 2 1.8v.5Zm-2.5-1.3c-.2.1-.3.3-.3.5l-.1.4h1.8v-.4c0-.2-.2-.3-.3-.5a1 1 0 0 0-.6-.1l-.5.1ZM118.2 766.8v.8h-1v3.6h-1v-3.5h-.6l-.1-.1v-.7l.1-.1h.5v-.2l.2-.9c.1-.2.3-.4.5-.4l1-.2h.3l.1.1v.7H117.9l-.6.2-.1.6h1v.1ZM119.5 771c-.4-.3-.6-.6-.7-1l-.2-1c0-.4 0-.7.2-1 .1-.4.3-.7.7-1a2 2 0 0 1 1.2-.3c.4 0 .8.1 1.1.4.3.2.6.5.7 1l.2.9c0 .4 0 .7-.2 1a2 2 0 0 1-.7 1c-.3.2-.7.3-1.1.3a2 2 0 0 1-1.2-.3Zm1.7-.7c.2-.2.3-.3.3-.5l.1-.8v-.7a.9.9 0 0 0-1-.7 1 1 0 0 0-.9.7v1.5c0 .2.2.3.4.5l.5.1.6-.1ZM126.2 766.8v.2l-.1.8h-.6a1 1 0 0 0-.6.2c-.2.2-.3.4-.3.7v2.5h-1v-4.3l.1-.1h.9v.5c.3-.4.6-.6 1-.6l.6.1ZM129.6 771c-.3-.1-.6-.4-.8-.7l-.2-1V767c0-.4 0-.8.2-1 .2-.4.5-.6.8-.8.3-.2.7-.2 1.2-.2.4 0 .8 0 1.1.2l.8.7.2 1v.1h-.9c0-.4-.2-.6-.4-.8-.2-.2-.5-.4-.8-.4-.4 0-.7.2-.9.4-.2.2-.3.4-.3.8v2.2c0 .3 0 .6.3.8.2.2.5.3.9.3.3 0 .6 0 .8-.3.2-.2.3-.4.3-.8h1c0 .4 0 .8-.2 1-.2.4-.5.6-.8.8l-1.1.2c-.5 0-.9 0-1.2-.2ZM134.6 771l-.7-1-.1-1 .1-1c.1-.4.4-.7.7-1a2 2 0 0 1 1.2-.3c.5 0 .8.1 1.2.4.3.2.5.5.7 1l.1.9-.1 1a2 2 0 0 1-.7 1 2 2 0 0 1-1.2.3 2 2 0 0 1-1.2-.3Zm1.8-.7.3-.5v-1.5a.9.9 0 0 0-1-.7 1 1 0 0 0-.8.7l-.1.7v.8l.4.5.6.1.5-.1ZM142 767.1c.3.3.4.7.4 1.2v2.9h-.9v-2.7c0-.3-.1-.5-.3-.7a.8.8 0 0 0-.6-.2c-.2 0-.5 0-.6.2-.2.2-.2.4-.2.7v2.7h-1V766.8h.9v.4h.1c.2-.3.6-.5 1-.5.6 0 1 .2 1.2.4ZM145.8 767.6h-1v2.2c0 .2 0 .3.2.4l.4.2h.3l.1.1v.7h-.6c-.4 0-.8 0-1-.2-.2-.1-.3-.4-.3-.8v-2.5h-.6V766.7h.5v-1l.1-.2h.9v1.1h1V767.6ZM150.5 769v.3H147.6v.5c.2.4.5.7 1 .7a1 1 0 0 0 1-.5h.1l.6.4v.1c-.2.3-.4.5-.7.6-.3.2-.6.2-1 .2a2 2 0 0 1-1.2-.3c-.3-.2-.5-.5-.6-.8-.2-.3-.2-.8-.2-1.3v-.9l.7-1a2 2 0 0 1 1.2-.3c1.1 0 1.8.6 2 1.8v.5Zm-2.5-1.2c-.2 0-.3.2-.3.4l-.1.4h1.8v-.4c0-.2-.2-.3-.3-.4a1 1 0 0 0-.6-.2l-.5.1ZM157.2 767.1c.3.3.4.7.4 1.2v2.9h-1v-2.7c0-.3 0-.5-.2-.7a.7.7 0 0 0-.6-.2c-.2 0-.4 0-.6.2l-.2.7v2.7h-1v-2.7l-.2-.7a.7.7 0 0 0-.6-.2c-.2 0-.4 0-.6.2l-.2.5v2.9h-1V766.8h.9v.4h.1l.5-.4h.6l.8.1.5.5.6-.5.8-.2c.4 0 .7.2 1 .4ZM162.5 769l-.1 1c-.1.5-.3.8-.6 1-.3.2-.7.3-1 .3-.5 0-.8-.1-1-.4h-.1v1.9l-.1.1h-.9v-6.1h.9v.3h.1c.3-.2.6-.4 1-.4s.8.1 1 .3c.4.2.6.5.7 1l.1 1Zm-1 0c0-.4 0-.7-.2-1a.8.8 0 0 0-.7-.4c-.3 0-.6.1-.7.4a2 2 0 0 0-.2 1c0 .5 0 .8.2 1 .2.3.4.5.7.5.3 0 .5-.2.7-.4l.2-1ZM164.2 771c-.3-.3-.6-.6-.7-1l-.1-1 .1-1c.1-.4.4-.7.7-1a2 2 0 0 1 1.2-.3c.5 0 .8.1 1.1.4.4.2.6.5.7 1l.2.9c0 .4 0 .7-.2 1a2 2 0 0 1-.7 1 2 2 0 0 1-1.1.3 2 2 0 0 1-1.2-.3Zm1.7-.7.4-.5v-1.5a.9.9 0 0 0-1-.7c-.2 0-.3 0-.5.2a1 1 0 0 0-.3.5l-.1.7v.8l.4.5.6.1.5-.1ZM170.9 766.8v.2l-.1.8H170.2a1 1 0 0 0-.6.2c-.2.2-.3.4-.3.7v2.5h-.9V766.7h.9v.5c.3-.4.7-.6 1.1-.6l.5.1ZM174.2 767c.3 0 .5.2.7.4l.2.8v3h-1v-.3c-.3.3-.8.4-1.3.4-.4 0-.8 0-1-.3-.4-.2-.5-.6-.5-1s.2-.8.5-1a2 2 0 0 1 1.3-.4h1v-.3c0-.2 0-.4-.2-.5-.1-.2-.3-.2-.6-.2a1 1 0 0 0-.5.1c-.2 0-.3.2-.3.3l-.1.1h-.9v-.1c0-.4.2-.7.5-1 .4-.2.8-.3 1.3-.3.3 0 .7 0 1 .2Zm-.4 3.3c.2-.2.3-.3.3-.6v-.4h-.8l-.7.1c-.2.2-.3.3-.3.5s0 .4.2.5l.6.1c.2 0 .5 0 .7-.2ZM178.7 766.8v.2l-.1.8H178a1 1 0 0 0-.6.2c-.2.2-.3.4-.3.7v2.5h-.9V766.7h.9v.5c.3-.4.7-.6 1-.6l.6.1ZM179.4 773V772.2h.1l.6-.1.3-.3.2-.5-1.4-4.4v-.1h1l1 3.1.8-3 .2-.1h.8v.1l-1.5 4.6-.4 1-.6.4-1 .1h-.1ZM118.5 777.3l.6.5c.2.3.2.5.2.8v3h-.9v-.3h-.1c-.3.3-.7.4-1.3.4-.4 0-.8 0-1-.3-.3-.2-.5-.6-.5-1s.2-.8.5-1c.3-.3.8-.4 1.3-.4h1v-.3c0-.2 0-.4-.2-.5l-.6-.2a1 1 0 0 0-.5.1l-.3.3v.1h-1v-.1c0-.4.2-.7.5-1 .4-.2.8-.3 1.3-.3.4 0 .7 0 1 .2Zm-.5 3.4c.2-.2.3-.3.3-.6v-.4h-.8l-.7.1c-.2.2-.2.3-.2.5s0 .4.2.5l.5.1c.3 0 .5 0 .7-.2ZM123.6 777.5c.3.3.4.7.4 1.2v2.9h-.9v-2.7c0-.3-.2-.5-.3-.6a.8.8 0 0 0-.6-.3c-.3 0-.5 0-.6.3-.2.1-.3.3-.3.6v2.7h-.9v-4.3h.9v.3h.1c.2-.3.6-.5 1-.5.6 0 1 .2 1.2.5ZM127.8 775.6h1v6h-.9v-.3h-.1c-.3.3-.6.4-1 .4-.5 0-.8 0-1-.3-.4-.2-.6-.5-.7-.9l-.2-1c0-.5 0-.8.2-1.1.1-.4.3-.7.6-1 .3-.2.6-.3 1-.3.5 0 .8.2 1 .5h.1v-2Zm0 3.8c0-.4 0-.8-.2-1a.7.7 0 0 0-.7-.4c-.3 0-.5.1-.7.4l-.2 1c0 .4 0 .8.2 1 .1.3.4.5.7.5.3 0 .5-.2.7-.5l.2-1ZM131.8 781.6v-6h2.2c.4 0 .8 0 1 .2.4.1.6.3.8.6.2.3.3.6.3 1v2.5l-.3 1-.7.5c-.3.2-.7.3-1.1.3h-2.2Zm1-.8h1.2c.3 0 .6-.1.8-.3.2-.2.2-.5.3-.8v-2.2c0-.3-.1-.6-.3-.8a1 1 0 0 0-.8-.3h-1.2v4.3ZM137.2 776.4a.6.6 0 0 1-.2-.4c0-.2 0-.4.2-.5l.4-.2.5.2.2.5-.2.4-.5.2c-.2 0-.3 0-.4-.2Zm0 5.2h-.1v-4.3l.1-.1h.9v4.4h-.9ZM142 777.2h.9l.1.1v4c0 .8-.2 1.3-.6 1.6-.4.3-1 .5-1.6.5h-.6v-.9h.5c.5 0 .8-.1 1-.3.2-.2.3-.5.3-.9-.3.2-.6.3-1 .3a2 2 0 0 1-1.1-.3c-.3-.1-.5-.4-.7-.8v-2.2a1.6 1.6 0 0 1 1.7-1.2c.4 0 .8.2 1 .4v-.2h.1Zm0 2.7v-1.3l-.4-.4a.9.9 0 0 0-.5-.2c-.2 0-.4 0-.5.2a1 1 0 0 0-.4.4v1.6c0 .2.2.3.3.4.2.2.4.2.6.2.2 0 .4 0 .6-.2l.2-.4v-.3ZM144.2 776.4a.6.6 0 0 1-.2-.4c0-.2 0-.4.2-.5l.4-.2.5.2.2.5-.2.4-.5.2c-.1 0-.3 0-.4-.2Zm0 5.2h-.1v-4.3l.1-.1h.9v4.4h-.9ZM148.6 778h-1v2.2l.1.5.5.1h.3V781.6h-.5c-.4 0-.8 0-1-.2-.2-.1-.4-.4-.4-.8V778h-.5v-.1h-.1V777.1h.6V776h1v1h1v.8ZM152.2 777.3c.3.1.5.3.6.5.2.3.3.5.3.8v3h-1v-.3c-.4.3-.8.4-1.3.4s-.8 0-1.1-.3c-.3-.2-.4-.6-.4-1s.1-.8.4-1a2 2 0 0 1 1.4-.4h1v-.3l-.2-.5-.6-.2a1 1 0 0 0-.6.1l-.2.3-.1.1h-.9v-.1c0-.4.2-.7.5-1 .3-.2.7-.3 1.3-.3.3 0 .6 0 1 .2h-.1Zm-.4 3.4c.2-.2.3-.3.3-.6v-.4h-.8l-.8.1-.2.5c0 .2 0 .4.2.5l.5.1c.3 0 .5 0 .8-.2ZM154.1 781.6v-6h.9v6h-.8ZM161.3 775.6h1v6h-.9V779H159v2.5h-1v-6h1v2.5h2.3v-2.5ZM163.6 776.4a.6.6 0 0 1-.2-.4c0-.2 0-.4.2-.5l.4-.2.5.2.1.5-.1.4-.5.2c-.2 0-.3 0-.4-.2Zm0 5.2h-.1v-4.3l.1-.1h.9v4.4h-.9ZM166.4 781.6l-.7-.5a1 1 0 0 1-.2-.6v-.1l.1-.1h.8v.1c0 .2.2.3.3.4l.6.2c.3 0 .4 0 .6-.2l.2-.4s0-.2-.2-.3c0 0-.3 0-.5-.2h-.4l-.7-.4c-.2 0-.4-.2-.5-.4a1 1 0 0 1-.3-.6c0-.4.2-.8.5-1a2 2 0 0 1 1.3-.4c.4 0 .7 0 1 .2l.6.5.2.7h-.9c0-.2-.2-.3-.3-.4a1 1 0 0 0-.6-.2 1 1 0 0 0-.6.2l-.2.3c0 .2 0 .3.2.3l.7.3h.2l.8.3.5.4c.2.2.2.4.2.7 0 .4-.1.7-.4 1-.4.2-.8.3-1.3.3l-1-.1ZM172.3 778h-1v2.2l.1.5.5.1H172.2V781.6h-.5c-.5 0-.8 0-1-.2-.3-.1-.4-.4-.4-.8V778h-.5l-.1-.1V777.1h.6V776h.9v1h1.1v.8ZM173.8 781.4l-.7-1-.1-1 .1-1 .7-1a2 2 0 0 1 1.2-.3c.5 0 .9.1 1.2.4.3.2.5.5.7 1l.1 1-.1 1a2 2 0 0 1-.7.9 2 2 0 0 1-1.2.3 2 2 0 0 1-1.2-.3Zm1.8-.7.3-.5v-1.5a.9.9 0 0 0-1-.7c-.1 0-.3 0-.5.2a1 1 0 0 0-.3.5v1.5c0 .2.2.4.3.5l.6.2.6-.2ZM180.5 777.3s.1 0 0 0v.9h-.7a1 1 0 0 0-.6.3l-.2.6v2.5h-1V777.2h.9v.5h.1c.3-.4.6-.6 1-.6.2 0 .4 0 .5.2ZM181.3 783.4V782.6l.6-.1c.1 0 .3-.1.3-.3l.3-.5-1.5-4.4.1-.1h.9l1 3.2.9-3.1.1-.1h.9v.1l-1.5 4.6-.4 1-.6.4-1 .1h-.1ZM53 781.7a5 5 0 0 1-5-5v-12.3a2.5 2.5 0 0 1 5 0v17.3ZM101.6 781.7a5 5 0 0 1-5-5v-12.3a2.5 2.5 0 0 1 5 0v17.3ZM71 781.7a2.5 2.5 0 0 1-2.4-2.5V762a5 5 0 0 1 5 5v12.3c0 1.4-1.2 2.5-2.5 2.5ZM91.7 781.7a2.5 2.5 0 0 1-2.5-2.5V757a2.5 2.5 0 1 1 5 0v22.2c0 1.4-1.1 2.5-2.5 2.5ZM78.5 781.7a2.5 2.5 0 0 1-2.5-2.5v-14.8a2.5 2.5 0 0 1 5 0v14.8c0 1.4-1.1 2.5-2.5 2.5ZM107.2 781.1c.3.4.6.6 1 .6v-17.2c0-1.4-1-2.6-2.4-2.6s-2.6 1.1-2.6 2.5v17.3c.5 0 .9-.3 1.2-.6.8-.8 2-.8 2.8 0M78.5 759.4A2.5 2.5 0 0 1 76 757a2.5 2.5 0 1 1 5 0c0 1.3-1.1 2.4-2.5 2.4ZM58.5 781.1c.3.4.7.6 1 .6v-17.2c0-1.4-1-2.5-2.4-2.6-1.4 0-2.5 1.1-2.5 2.5v17.3c.4 0 .8-.3 1.2-.6.7-.8 2-.8 2.7 0M63 762.5c-.3-.3-.6-.6-1-.6v17.2c0 1.4 1 2.6 2.4 2.6s2.6-1 2.6-2.5V762c-.5 0-.9.3-1.2.7-.8.7-2 .7-2.8 0"/><path fill="#E13C2E" d="M85.1 781.7a2.5 2.5 0 0 1-2.5-2.5c0-1.3 1.1-2.4 2.5-2.4s2.5 1 2.5 2.4-1.1 2.5-2.5 2.5Z"/></g><g clip-path="url(#g)"><path fill="#1E3446" d="M228.9 760c-.2-.3-.6-.6-1.2-.6-.5 0-.9.3-1.1.6l-.3.9v1.5h.6v-1.5c0-.1 0-.3.2-.5.1-.2.3-.3.6-.3.4 0 .6.1.7.3l.2.5v1.5h.6v-1.5c0-.3 0-.6-.3-.9Zm.2 15.7v-5.2h-2.8v5.2h2.8Zm-9.2 2h15.6v-.6h-15.6v.7Zm13.2-15.3v-1.5c0-.3 0-.6-.3-.9-.2-.3-.6-.6-1.1-.6-.6 0-1 .3-1.2.6l-.3.9v1.5h.6v-1.5c0-.1 0-.3.2-.5.1-.2.3-.3.6-.3.4 0 .6.1.7.3l.2.5v1.5h.6Zm-5.4-7.2a1.4 1.4 0 0 0 0 2.8c.8 0 1.4-.6 1.4-1.4 0-.8-.6-1.4-1.4-1.4Zm0 2.2a.8.8 0 0 1-.8-.8c0-.4.4-.8.8-.8.5 0 .8.4.8.8 0 .5-.3.8-.8.8Zm-9.2-.3c1 0 1.8.5 2.3 1.2l.2.2h4.3v-2c0-.3.2-.8.5-1.4.4-.4 1-.9 1.9-.9 1 0 1.6.5 2 1 .3.5.4 1 .4 1.4v1.9h4.4l.1-.2a2.8 2.8 0 0 1 4.6 0l.6-.4a3.5 3.5 0 0 0-2-1.3l-6.9-6.3h-1.2v-1.7c0-1.3-1-1.7-1.6-1.8v-1.1h-.8v1c-.5.2-1.5.6-1.6 2v1.6h-1.2l-7 6.3c-.7.2-1.4.7-1.8 1.3l.5.4c.6-.7 1.4-1.2 2.3-1.2Zm8.3-8.4V748.4h.1v-.2h.1v-.1h.1v-.1h.2v-.1H228.3l.1.1.1.1v.1l.1.1v.1l.1.3v1.5h-1.8v-1.5Zm11.7 35.3V782h-4.2v1c.2.1.2.2.2.5v2.7c0 .2 0 .4-.2.5v1h4.2v-2H237v.1c0 .5-.1.7-.5.7h-.2v-1.2h1.2v-1h-1.2v-1.1h.2c.4 0 .5.1.5.5v.2h1.6Zm-1.6-20.8c-.5 0-1 .3-1.2.6l-.3.9v3.5h.7v-3.5c0-.2 0-.4.2-.5 0-.2.3-.3.5-.4h.1c.3 0 .5.2.6.4.2.2.2.3.2.5v3.5h.6v-3.5c0-.3 0-.6-.2-.9-.2-.3-.7-.6-1.2-.6Zm8.7-10.7a3.8 3.8 0 1 0 0-7.7 3.8 3.8 0 0 0 0 7.7Zm-1.9-2.3h-.1c-.1 0-.3 0-.3-.2 0-.1 0-.3.2-.4l1-.4c.1 0 .3 0 .4.2 0 .2 0 .4-.2.4l-1 .4Zm3.3.8h-.1c-.1 0-.3 0-.3-.2l-.4-1c0-.2 0-.3.2-.4.2 0 .4 0 .4.2l.4 1c0 .2 0 .3-.2.4Zm1.3-1.7c0 .2-.2.2-.3.2h-.2l-1-.5a.3.3 0 0 1 0-.4c0-.1.2-.2.3-.1l1 .4c.2 0 .2.3.2.4Zm-.7-2.2c.1 0 .3 0 .4.2 0 .1 0 .3-.2.4l-1 .4h-.1l-.3-.2c0-.2 0-.4.2-.4l1-.4Zm-2.1 0 .4-1s.3-.2.4 0c.2 0 .3.2.2.3l-.5 1a.3.3 0 0 1-.4.2.3.3 0 0 1-.1-.5Zm.2 2.6c.1.1.2.3.1.4l-.4 1a.3.3 0 0 1-.5.2.3.3 0 0 1-.1-.5l.4-1c.1 0 .3-.2.5 0Zm-1.4-3.4c.1 0 .3 0 .4.2l.3 1c.1.2 0 .3-.1.4h-.2s-.2 0-.3-.2l-.3-1c0-.2 0-.3.2-.4ZM243 748c0-.2.3-.3.4-.2l1 .4c.2.1.2.3.2.5l-.3.2h-.2l-1-.5s-.2-.3 0-.4Zm-20.6 19.6H221v3.6h1.3v4.5h2.8v-5.2h-3.5v-2.3h12v2.3h-3.4v5.2h2.7v-4.5h1.3v-3.6h-1.2v-3c0-.2 0-.5-.3-.8-.2-.3-.6-.6-1.1-.6-.6 0-1 .3-1.2.6l-.3.9v2.9h-1v-3c0-.2 0-.5-.3-.8-.2-.3-.6-.6-1.2-.6-.5 0-.9.3-1.1.6l-.3.9v2.9h-1v-3l-.3-.8c-.2-.3-.7-.6-1.2-.6s-1 .3-1.2.6l-.3.9v2.9Zm8.4-3s0-.3.2-.4c.1-.2.3-.3.6-.4h.1c.3 0 .5.2.6.4l.2.5v2.9h-1.7v-3Zm-3.9 0s0-.3.2-.4c.1-.2.3-.3.6-.4.4 0 .6.2.7.4l.1.5v2.9H227v-3Zm-4 0 .3-.4c0-.2.3-.3.6-.4.3 0 .5.2.7.4l.1.5v2.9H223v-3Zm6.7 22.2v1h4.1V785h-1.5v.9c0 .4 0 .6-.5.6h-.1v-2.8c0-.4 0-.6.3-.6v-1h-2.3v1c.2 0 .2.2.2.5v2.6c0 .3 0 .5-.2.6Zm8.8-7.7H217v.6h21.4v-.6Zm-13.2-16.7v-1.5c0-.3 0-.6-.2-.9-.2-.3-.6-.6-1.2-.6-.5 0-1 .3-1.1.6-.3.3-.3.6-.3.9v1.5h.6v-1.5c0-.1 0-.3.2-.5 0-.2.3-.3.6-.3s.6.1.7.3l.1.5v1.5h.7ZM229 784V782h-4.3v1c.2.1.2.2.2.5v2.7c0 .2 0 .4-.2.5v1h4.3v-2h-1.7v.1c0 .5 0 .7-.5.7h-.1v-1.2h1.1v-1h-1.1v-1.1h.1c.4 0 .5.1.5.5v.2h1.6Zm-14.8 8.7H213v-2.6h-.4v2.9h1.4v-.2Zm18.3-2.3-.4-.3h-1.5v2.9h1.4l.5-.3.3-.5V790.9c0-.2-.2-.4-.3-.5Zm-.1 1.6-.2.4-.3.2-.5.1h-.4v-2.3h.9l.3.3.2.3v1Zm2.8.8h-1.3v-1.2h1.1v-.2h-1v-1h1.1V790h-1.5V793h1.6v-.2Zm-5.5-2.8H229.3v2.3l-.2.2-.3.2h-.6s-.2 0-.2-.2l-.2-.2V790h-.4v2.4l.3.3.3.2.5.1h.5l.4-.3.2-.4v-2.3Zm7.7 2.7h-1.1v-2.6h-.4v2.9h1.5v-.2Zm-15.6-10.6h-2.2v1c.2 0 .2.2.2.5v2.6c0 .3 0 .5-.2.6v1h2.2c1.7 0 2.2-.4 2.2-2V784c0-1.6-.5-2-2.2-2Zm.5 3.8c0 .5-.1.6-.5.6h-.2v-3.2h.2c.4 0 .5.2.5.6v2Zm4.2 4.5-.5-.3h-1.4v2.9h1.4l.4-.3c.2-.2.3-.3.3-.5a2 2 0 0 0 0-1.3l-.2-.5Zm-.1 1.6-.2.4-.4.2-.5.1h-.4v-2.3h.9l.4.3.2.3v1Zm12.8-1.9h-.5l-1 2.8h-.1v.1h.4l.3-.7h1.2l.3.7H240.2v-.1l-1-2.8Zm-.8 1.8.5-1.5.5 1.5h-1Zm10-7.3h-1.9v1h.3v.5c0 .4 0 .6-.4.6-.2 0-.3-.2-.3-.6v-2.4c0-.3 0-.5.3-.5s.4.2.4.5v.4h1.7v-1.5c-.6-.4-1.3-.6-2.2-.6-1.5 0-2 .6-2 2v1.9c0 1.4.5 2 2 2 1 0 1.7-.2 2.2-.6v-2.8Zm-2.4 5.7v-.1l-.3-.1h-.3l-.3-.1-.6.1c-.2 0-.3.2-.5.3l-.3.5V792.2a1.3 1.3 0 0 0 .8.8h1.3l.1-.1.1-.1V791.4h-1.1V791.8h.8v.9a1 1 0 0 1-.6.1h-.4a1 1 0 0 1-.3-.3l-.3-.4v-1l.2-.3a1 1 0 0 1 .8-.4 1.3 1.3 0 0 1 .7.2h.1l.1.1V790.2Zm-23.3 2.5h-1.2v-1.2h1v-.2h-1v-1h1.1l.1-.1v-.2H221V793h1.6v-.2Zm25.8 0h-1.3v-1.2h1.1v-.2h-1v-1h1.1V790H247V793h1.6v-.2Zm-5.6-2.8H242.6v2.5l-.1-.2-.1-.2-.2-.3v-.2l-.8-1.3v-.1l-.1-.1H240.7v2.9H241v-2.5l.2.3.2.2.9 1.7v.2h.2v.1h.4V790Zm.9-7v-.9h-1.9v1c.2 0 .2.2.2.5v1.4l-1-2.9h-2v1c.2.1.2.2.2.5v2.6c0 .3 0 .5-.2.6v1h1.8v-1c-.2-.1-.2-.3-.2-.5V785l1.1 2.7h1.7v-4.2c0-.2 0-.4.2-.5Zm-24.8 2.8V784c0-1.6-.6-2-2.3-2h-2.2v1c.2.1.2.2.2.5v2.7c0 .2 0 .4-.2.5v1h2.2c1.7 0 2.3-.4 2.3-2Zm-1.8.1c0 .5 0 .6-.5.6h-.2v-3.2h.2c.4 0 .5.2.5.6v2Zm1.2-26.5a1.4 1.4 0 1 0 0 3 1.4 1.4 0 0 0 0-3Zm0 2.3a.8.8 0 0 1-.8-.8c0-.5.4-.8.8-.8.5 0 .9.3.9.8 0 .4-.4.8-.9.8Zm-9.6 28.3H208.5v.1l-1 2.5-.8-2.5h-.4l1 2.9h.5l1-2.8v-.1Zm5.1-3.2c-.2-.1-.2-.3-.2-.6v-2.6c0-.3 0-.4.2-.5v-1h-2.2v1c.2 0 .2.2.2.5v2.6c0 .3 0 .5-.2.6v1h2.2v-1Zm3.7-16.3h1.7v5.1h.6V770H217v5.7h.6v-5Zm19.3-11c-.8 0-1.5.6-1.5 1.4a1.4 1.4 0 1 0 3 0c0-.8-.7-1.5-1.5-1.5Zm0 2.2a.8.8 0 0 1-.8-.8c0-.5.3-.8.8-.8.4 0 .8.3.8.8 0 .4-.4.8-.8.8Zm-18.4 1.5c-.6 0-1 .3-1.2.6l-.3.9v3.5h.6v-3.5c0-.2 0-.3.2-.5.1-.2.3-.3.6-.3.4 0 .6.1.7.3l.2.5v3.5h.6v-3.5c0-.3 0-.6-.3-.9-.2-.3-.6-.6-1.1-.6Zm-8.8 26.8H209.3v3H209.8v-3Zm10.3.4-.4-.3h-1.4v2.9h1.4l.4-.3c.2-.2.3-.3.3-.5l.1-.7v-.6l-.3-.5Zm0 1.6-.3.4-.3.2-.5.1h-.4v-2.3h.9l.4.3.1.3.1.5v.5Zm18.3-16.4V770h-2.9v5.7h.7v-5h1.6v5h.6Zm-22 17.1H215v-1h1.1V791.3h-1v-1h1.1l.1-.1v-.2h-1.6V793h1.6v-.2Zm-4.2 0H211v-2.6h-.4v2.9h1.5v-.2Zm-1-8.6c0-1.6-.6-2-2.3-2h-2.2v1c.2.1.2.2.2.5v2.6c0 .3 0 .5-.2.6v1h2.1c1.8 0 2.3-.4 2.3-2v-1.7Zm-1.9 1.8c0 .5 0 .6-.4.6h-.2v-3.2h.2c.4 0 .4.2.4.6v2Z"/></g><g clip-path="url(#h)"><path fill="#1E3446" d="M315.4 790.4c-.3 0-.6.1-.8.3l-.2 1v.1c0 .4 0 .7.3.9.1.2.4.3.7.3l.5-.1.4-.3-.3-.4c-.1.2-.3.2-.5.2h-.4v-.5h1.2v-.3c0-.4 0-.7-.2-.9-.2-.2-.4-.3-.7-.3Zm.3 1h-.7l.1-.3.3-.1h.2v.4Zm-33.2 1.5h.6v-2.4h-.6v2.4Zm-2.5-5.4.3-.3-.3-.4c-.1.2-.3.3-.5.3-.1 0-.3 0-.3-.2l-.2-.4h1.3v-.3c0-.4 0-.7-.2-.9-.2-.2-.4-.3-.7-.3-.3 0-.6.1-.7.4-.2.2-.3.5-.3.8v.2c0 .4.1.7.3.9.2.2.4.3.8.3l.5-.1Zm-.9-1.8.3-.1h.2l.1.4h-.6v-.3Zm3.7 3.8h-.3v.6h.5l.1-.3v-.2l-.3-.1Zm-2.4 2.5-.6-2.4h-.9v3.3h.7v-2.3l.6 2.3h.5l.6-2.3v2.4h.6v-3.4h-.8l-.7 2.4Zm2.6-4.7v.2h.6V784h-.6v1.3a.6.6 0 0 0-.5-.3c-.3 0-.5.1-.6.3l-.2 1v.1c0 .4 0 .7.2.9.1.2.3.3.6.3.2 0 .4-.1.5-.3Zm-.6-.4v-1.2l.3-.1c.1 0 .2 0 .3.2v1l-.3.3-.3-.2Zm4.2 3.8v-.2h-.6v2.4h.6v-1.6c0-.2.2-.2.4-.2h.2v-.7h-.2c-.2 0-.3.1-.4.3Zm-1.5-3.6c-.1 0-.2 0-.3-.2l-.1-.4h1.3v-.3c0-.4-.1-.7-.3-.9-.1-.2-.4-.3-.7-.3-.3 0-.5.1-.7.4-.2.2-.3.5-.3.8v.2c0 .4.1.7.3.9.2.2.5.3.8.3l.5-.1.3-.3-.2-.4c-.2.2-.3.3-.6.3Zm-.3-1.4.2-.1h.3v.4h-.6v-.3Zm28.5 4.7-.6.3v-.2h-.6v2.4h.7v-1.8l.2-.1h.3v1.9h.7v-1.6c0-.6-.3-.9-.7-.9Zm-28.4.3a.6.6 0 0 0-.5-.3c-.3 0-.5.1-.6.3-.2.2-.3.5-.3 1v.1c0 .4.1.7.3.9.1.2.3.3.6.3.2 0 .3-.1.5-.3v.2l-.1.4H284.2l-.3-.1-.2.4.3.2h.5c.3 0 .6 0 .7-.2.2-.1.3-.4.3-.7v-2.4h-.6v.2Zm0 1.6-.3.1-.3-.1-.1-.5v-.7l.4-.1.2.1v1.2Zm29.7-6.6v1.8h.7V786c0-.6-.3-.9-.7-.9-.2 0-.4.1-.5.3v-.2h-.7v2.4h.7v-1.7c0-.2.1-.2.2-.2h.3Zm-38 5.8-.3-.2V791l.2-.1c.2 0 .3 0 .3.3h.6c0-.2 0-.4-.2-.6a1 1 0 0 0-.7-.2c-.3 0-.5 0-.6.2-.2.2-.3.3-.3.6l.2.4.5.3.4.2v.2c0 .1 0 .2-.2.2h-.2l-.1-.3h-.6l.1.4.3.3h.5l.7-.1.2-.6c0-.1 0-.3-.2-.4l-.5-.3Zm-6.3-.8v-.2h-.7v2.4h.7v-1.6c0-.2.2-.2.3-.2h.3v-.7h-.2c-.2 0-.3.1-.4.3Zm2 2.2h.6v-3.5h-.6v3.5Zm5.2-7.6v-.2h-.6v2.4h.7V786c0-.1.1-.2.3-.2h.2v-.6h-.1c-.2 0-.4 0-.5.2Zm-4.7 2-.3-.5c-.1.2-.3.3-.5.3s-.3 0-.4-.2v-.4h1.2v-.3c0-.4 0-.7-.2-.9-.2-.2-.4-.3-.7-.3-.3 0-.6.1-.8.4l-.2.8v.2c0 .4 0 .7.3.9.1.2.4.3.7.3l.5-.1c.2 0 .3-.2.4-.3Zm-1.2-1.6.3-.1h.2v.4h-.6l.1-.3Zm-3 6.5c-.1.2-.3.2-.4.2-.2 0-.2 0-.2-.3v-1.6h-.7v1.6c0 .3 0 .5.2.6.1.2.3.3.5.3s.4-.1.5-.3v.2h.7v-2.4h-.7v1.7Zm-2.4-.7-.3-.2-.1-.2v-.1l.2-.1c.2 0 .3 0 .3.3h.6c0-.2 0-.4-.2-.6a1 1 0 0 0-.7-.2c-.2 0-.4 0-.6.2-.2.2-.2.3-.2.6l.1.4.6.3.3.2.1.2c0 .1 0 .2-.3.2h-.2v-.3h-.7l.1.4.3.3h.5l.7-.1.2-.6-.1-.4-.6-.3Zm4.3-5h-.6l-.1.4-.4.1c-.2 0-.3 0-.4-.2V785l.4-.2c.2 0 .3 0 .4.2v.5h.8c0-.4-.2-.7-.4-1l-.8-.2a1 1 0 0 0-.9.4c-.2.2-.3.6-.3 1v.6c0 .4.1.8.3 1 .2.3.5.4.9.4s.6-.1.8-.3c.2-.2.3-.5.4-.9Zm4.5 1V786c0-.6-.2-.9-.6-.9-.3 0-.5.1-.6.3v-.2h-.6v2.4h.6v-1.7c0-.2.2-.2.3-.2h.2v1.9h.7Zm1.2 0h.4v-.5H276.3v-1.4h.3v-.5h-.4v-.6h-.6v.6h-.3v.5h.3v1.3c0 .4.2.7.6.7Zm36.6-.2c.2-.2.2-.5.2-1 0-.4 0-.7-.2-1a1 1 0 0 0-.8-.3c-.3 0-.5.1-.7.4-.2.2-.3.5-.3.8v.2c0 .4.1.7.3.9.2.2.4.3.7.3.4 0 .6-.1.8-.3Zm-.4-.8c0 .4-.1.6-.4.6-.2 0-.3-.3-.3-.7v-.7l.3-.1.3.1v.8Zm5.8 5.3-.5-.3-.4-.2V791l.2-.1c.2 0 .2 0 .2.3h.7c0-.2 0-.4-.3-.6a1 1 0 0 0-.6-.2c-.3 0-.5 0-.6.2-.2.2-.3.3-.3.6 0 .1 0 .3.2.4l.5.3.4.2v.2c0 .1 0 .2-.2.2h-.2l-.1-.3h-.6v.4l.4.3h.5l.6-.1c.2-.2.3-.3.3-.6 0-.1 0-.3-.2-.4Zm-43.8-1.4c-.3 0-.6.1-.8.3l-.2 1v.1c0 .4 0 .7.3.9.2.2.4.3.7.3l.5-.1.4-.3-.3-.4c-.1.2-.3.2-.5.2h-.3l-.2-.5h1.3v-.3c0-.4 0-.7-.2-.9-.2-.2-.4-.3-.7-.3Zm.3 1h-.7l.1-.3.3-.1h.2v.4Zm14.6-4.2c.2-.3.3-.6.3-1v-.6c0-.4-.1-.8-.3-1-.3-.2-.6-.4-1-.4h-.9v3.3h1c.3 0 .6 0 .9-.3Zm-1.2-2.4h.3c.2 0 .3 0 .4.2l.1.6v.6l-.1.6-.5.2h-.2v-2.2Zm17.9 2.7v-.5h-.4v-1.4h.3v-.5h-.3v-.6h-.6v.6h-.3v.5h.3v1.3c0 .4.2.7.6.7h.4Zm-1.6 0V786c0-.6-.2-.9-.7-.9-.2 0-.4.1-.5.3v-.2h-.7v2.4h.7v-1.7c0-.2.1-.2.3-.2h.2v1.9h.7Zm-.2 4.7c-.1.2-.2.2-.4.2-.1 0-.2 0-.2-.3v-1.6h-.6v1.6l.1.6c.2.2.3.3.6.3.2 0 .4-.1.5-.3v.2h.6v-2.4h-.6v1.7Zm-2-6c0-.4 0-.7-.3-.9-.1-.2-.3-.3-.7-.3-.3 0-.5.1-.7.4-.2.2-.2.5-.2.8v.2c0 .4 0 .7.2.9.2.2.5.3.8.3l.5-.1c.2 0 .3-.2.3-.3l-.2-.4c-.1.2-.3.3-.5.3s-.3 0-.4-.2l-.1-.4h1.3v-.3Zm-.6-.1h-.7l.1-.4.2-.1h.3v.4Zm9.4-28.3c.3 0 .2-.5.2-.8-.4-.5-1 0-1.2 0h-.4c-.2 0-.5-.2-.7 0-.2-.4-.3-1-.5-1v-.3l-.2-.3v-.3l-.2-.2v-.2l-.3-.2v-.2l-.2-.2v-.2l-.3-.2v-.3l-.4-.2v-.2l-.1-.2c-.2-.1-.2-.3-.3-.5h-.2l-.1-.3-.4-.4-.3-.4-.4-.5-.1-.1-.5-.7-.4-.3-.3-.5-.4-.2c0-.2-.1-.4-.3-.5l-.5-.4-.5-.5h-.2l-.1-.2h-.2l-.1-.2h-.4v-.2h-.2c-.2-.1-.3-.5-.6-.5-.1 0-.1-.2-.3-.2l-.4-.3h-.2v-.1h-.3v-.2l-.3-.3h-.2l-.1-.2-.5-.1v-.1h-.2c-1-.4-2.2-.7-3.2-.8H291c-.7 0-1.7.3-2.2.4h-.2c0 .1-.3 0-.4 0-.4.2-.8.4-1.2.4l-.5.2h-.1l-.5.2h-.1l-.5.2-.4.2h-.4l-.2.3h-.3a1 1 0 0 0-.4.3h-.2s0 .2-.2.2l-.2.1-.6.3c-.2-.3 0-.9-.5-1l-.1-.3c-.4 0-.5.3-.7.5l-.8 1v.1l-.2.1c0 .2 0 .3-.2.5h-.2c0 .2 0 .3-.2.4 0 .2 0 .3-.2.5h-.1l-.3.6-.2.1v.2l-.3.2c-.4.4-.9.8-1.2 1.3l-.2.2v.4h-.2l-.2.4-.2.3-.5.7v.2l-.2.1v.2l-.2.1v.4l-.2.1-.1.4c0 .1-.1 0-.1 0l-1 2-.3.4-.1.1-.1.4h-.1l-.4 1-.2.4v.1l-.4.8v.4c0 .3-.1.3-.2.4v.8c-.3 1.4 0 3.3.3 4.7l.3.9.1.4.1.4.1.2.2.5c0 .2 0 .1.1.1v1.2l-.1 1.5h-.1l-.1.6c-.1.5.3.4.4.6-.2.4-.6.4-.5 1 .8 0 1-.5 1.6-.7l.4 1 .2.5.2.7h.1l.4.8.2.4.1.1.2.4h.1v.2h.1v.2l.3.3 1 .8.3.2.3.1v.1l1 .5.3.1c.4.2 1.2.4 1.4.6h.2l.7.3h.2c.2 0 .3.2.5.3l.5.2h1.2l.1.2h1.2c1.2.1 2.7 0 3.5.3 0-.2.3-.1.5-.1l2.1-.1 1.2-.2.5-.1.5-.1.6-.2h.1v-.1h.2l.1-.2.3-.1h.2v-.1h.2c.2 0 .5-.2.5-.3h.2c.3-.1.7-.4 1-.4l.6-.3c0-.1.1 0 .2 0l.2-.3c.4-.3.6-.9 1.1-1 .1.4.3.8.8.7.3 0 .4 0 .5-.4.3.3.3-.3.7-.2v-.7l.2-.1.2-1v-.2c.3-.6.1-1.3.3-1.8v-.1l.2-.4c.2-.3.2-.6.2-.8l.2-.6h.1l.2-1h.1l.1-.7.2-.6v-.2l.1-1 .1-.1c.2-1.2 0-2.8 0-4V763l-.7-1.7c0-.3 0-.6-.2-.7v-.4h-.2v-.2l-.2-.2v-.3h-.1l-.2-.6-.3-.2-.2-.5-.2-.1-.1-.3v-.2l-.2-.2-1.2-1.4-.4-.5-.5-.5-.7-.7-.2-.2-.5-.4-.8-.6c-.2-.2-.6-.2-.7-.5.2-.2 0-.5.1-.7l.2-.2.1-.1-.1-.2h-.7s-.1-.1 0-.1h-.7v.2h-.7c-.7.2-1.3.2-2 .2l-1-.1h-.2c-.4.2-.7 0-.8.2h-.5c-.7 0-.9 0-1.3.2l-1.6.4h-.1c-.2 0-.1.1-.1.1l-.5.2-.6.2-.2.1a2 2 0 0 0-.6.3l-.3.2-.3.2-.6.2-.5.5h-.1c-.2 0-.3.3-.4.4l-.4.4-.7 1h-.1c0 .3-.1.3-.2.4l-.2.2-.1.2c0 .2-.2.2-.3.3v.3l-.5.3v.2l-.2.2v.3l-.5.3c0 .2-.1.4-.3.5-.5.8-1.4 1.7-1.3 2.8-.3.1-.3.6-.3.7 0 .2-.3.2-.2.5.4.2 1.1-.2 1.5.2v1.3c.2 0 .2.3.3.3v.2l.2.8v.2l.2.2.2.5.2.5h.1v.2s.2 0 .2.2l.2.4v.1c0 .2 0 0 .1.1l.4.7.1.2.5.6c.4.4.6.9 1 1.2h.2v.2h.3v.1c.3.2.7.2 1 .3v.1h.2l.6.2.6.2.9.3.5.2.6.2c1.4.3 3 .4 4.5.3l.9-.2c.5 0 1 0 1.2-.2l.6-.2c0-.1.2 0 .2 0v-.2h.2c0-.1.2 0 .2 0v-.2h.2c0-.1.2 0 .2 0l.3-.5h.2c.2 0 .3-.3.3-.3h.2l.2-.1c.3-.6 1-1.4 1.2-2 0-.2 0-.5.2-.6V768.4c.2-.3.1-.6.2-1v-3l-.1-.6-.1-.3v-.2c0-.1-.2 0-.2-.2l-.1-.4-.2-.2-.1-.4h-.1l-.1-.3c-.2-.3-.2-.5-.4-.6v-.2h-.2l-.1-.2-.3-.1c-.1 0 0 0 0-.1l-1-.3c-.4-.2-1.1-.5-1.5-.5h-.6l-1.3-.2-1.2.3h-.3l-.1.1-.7.2h-.2l-.2.2-1 .6-.2.2h-.3c0 .1 0 .3-.2.5l-.3.3-.2.1v.2l-.2.3v.3l-.1.1c-.1.3-.2.6-.1 1v1.2l.2.4v.2l.4.8v.2h.1l.1.3.1.2.3.3.1.4.5.4.6.2.2.1c.8.5 1.6.8 2.5.6.4 0 .7 0 1-.2h.1l.6-.2v-.2h.4c0-.2.3-.3.4-.4l.5-.7c.2-.3.2-.5.2-.8h.1l.1-.4v-1.1c-.1-.3 0-.6-.2-.8l-.2-.2-.6-.8-.6-.5c0 .2-.1 0-.2 0h-1.3c0-.3-.3-.3-.4-.4-.1 0 .1-.8-.4-.6-.4 0-.2.7-.5 1 .1.1-.1.1-.1.2-.2.3 0 .5-.1.6v.2l-.3.7v.2h-.1v.3h-.1l-.2.7-.1.2v.2c.5.3 1-.1 1.4-.3.5-.1 1-.2 1.5-.5.5.1.7-.1 1-.2 0-.3-.4-.4-.4-.5l-.1-.4-.1-.1c-.1-.2-.2-.6 0-.8.4 0 .6.2.8.5.3 0 .5.4.7.7.6 1.4-.3 3.3-1.5 3.8l-.5.1-.6.2v.1h-.5c-.2.1-.2 0-.4 0h-.2l-.7-.3-.4-.1-.4-.1-.2-.2-.4-.1-.8-1.1-.2-.2v-.2c0-.1-.1 0-.2 0v-.5h-.2l-.3-1.2v-.2c-.2-.6 0-1 .1-1.4l.3-.8v-.2h.1v-.2c.2-.2.7-.4.8-.7.3 0 .7-.3.8-.4l.3-.3.4-.1.7-.3.6-.2c1.5-.2 2.8.2 3.7.5a8 8 0 0 1 1.8.8l.6 1.2c.1.3.3 1 .5 1.2v.6c.2.8.2 2.7 0 3.4v.4l-.1.8-.2.2v.4l-.2.2-.1.3-.2.2-.1.4-.7.6-.5.3-.3.2-.3.2c-.1.2-.3.3-.5.3v.1l-1 .3v.1c-.2 0-.1-.1-.2 0h-.4l-.1.1-1.3.1-.4.2h-.2c-.8 0-1.8 0-2.3-.2h-.3c-.5 0-1-.2-1.4-.3h-.4l-.4-.3-1.2-.4c-.3 0-.6-.2-.8-.3l-.9-.2v-.1h-.2v-.1h-.1l-.1-.2h-.2a4 4 0 0 1-.7-.8c0-.2-.4-.4-.4-.5l-.2-.2-.3-.5v-.2l-.2-.2-.2-.4c-.1 0 0-.2 0-.2l-.3-.2c0-.2 0-.3-.2-.5-.5-1.1-1-2.4-1-3.7.2 0 .8.2.7-.2v-.4c-.2-.6-.1-1.7-.3-2.1l-.2-1.2.6-.9.3-.3v-.1l.2-.1.2-.4.5-.6.4-.7h.2v-.3l.3-.3s0-.2.2-.3l.7-.8.7-.5.5-.3.2-.2.6-.2.2-.2.3-.2c.3-.1.4 0 .7-.2l.2-.2c.3-.1.5-.1.6-.3h.4l.2-.2h.8c1.2-.3 2.6-.5 3.8-.4.2.1.3.4.5.4.3 0 .4.2.6.3.1.1 0 .5.4.3.2.2 0 .3 0 .6.2.1.7-.2 1.2-.1.3.4 0 .8.4 1 0-.2.2-.1.3-.2 0-.5.1-.9.4-1 .8.3 1.6 1 2.2 1.5l.6.6c0 .2 0 0 .1.1l.5.7.8.8.6.9.2.2.3.4v.3h.2v.2l.2.2v.3l.3.2.4 1 .1.6.2.5.1.1.1.7.2.6v.5l.1.4c.2 1.1.2 3 0 4v.5l-.2.1v.8l-.2.7-.2.9-.2.4-.3 1v.2l-.1.4h-.3c-.2.1-.3.3-.3.4h-.2l-.3.3h-.3l-.1.2-.8.4-.2.1-.4.1-.5.4c-.2.3-.7.5-.5 1 0 .2.3 0 .4 0l.2.3.5.7c-.3 0-.5.4-.7.6l-1 .7-.4.3h-.2l-.2.2-1 .4-2.1.9h-1l-1 .2-1.8.3-.4-.1h-.6l-4.3-.2-.6-.1h-.3v-.1l-.6-.1-.4-.1-.2-.2-.1-.1-1-.3-1.2-.4-1-.4c0-.1-.1 0-.1 0v-.2h-.2l-.1-.2h-.3l-.1-.2-.8-.6-.6-.6v-.2l-.3-.2v-.3l-.3-.2v-.3l-.3-.2v-.3c-.1 0-.2 0-.3-.2-.1-.2-.1-.6-.3-.8l-.2-.2-.3-1.2c0-.2.4-.1.5-.3.2-.1.4-.2.4-.5-.2 0-.1-.4-.3-.5l-.3-.2-.2-.6-.3-.2v-.2l-.2-.1-.2-.3c-.2-.3-.2-.7-.4-.9-.2-.3-.5-.7-.5-1l-.1-.1c-.1-.4-.1-.9-.3-1v-.4c-.2-.3-.2-.6-.3-1v-.4c-.1 0 0-.1 0-.1-.1-.2 0-.3-.2-.3V763c-.1-.4-.3-.6 0-.8h-.2c0-.7 0-.9.2-1.3l.4-1.5 1-2.2v-.2l.3-.3c0-.1 0 0 0 0l.3-.6c0-.1.2-.1.2-.3.1-.2 0-.3.2-.5l.2-.2.8-1.6c.1-.2 0-.2.2-.3l.1-.2.2-.3.2-.5h.2v-.3h.2l.1-.4c.4-.2.6-.7.9-1l.5-.3.4-.4c.1 0 .4 0 .5-.2h.1l.4-.3h.8l.8-.2c.4 0 1 0 1.2-.5.1-.1 0-.4-.1-.6l-.2-.8c.2-.2.7-.3.8-.5h.2c0-.1.2 0 .2 0v-.2h.2l.2-.2h.3l.1-.2h.3l.2-.2h.3l.2-.2h.2c.2-.2.5-.2.7-.3l2.7-.6.9-.1v-.1h.4l.5-.1h.3l1-.1h1.4l1.4.3c.6.1 1.4.2 1.8.4h.3v.2h.4v.2h.6c0 .3.4.4.5.5l.2.2.2.1.2.2.3.1.2.2.5.2.2.2.5.3.5.3.3.4h.3l.4.5h.1v.2h.2l.4.5c0 .2.3.2.3.3l.3.5c.3.3.7.4.7.9.5.3.8.8 1 1.2l.4.3v.1l.2.3 1 1.4.2.4.2.4.2.3.1.1.2.7h.1v.2s.2.1.1.3c-.3.1-.7-.4-.8.1-.2 0 0 .3 0 .4v.3l.5.7c0 .1 0 .3.2.3v.2l.2.2c0 .3.3.5.3.8l.4.2v-.2c.2 0 .2.2.3.2l-.2.6c-.2 0-.6.3-.2.3.2.2.4 0 .6-.1l.7-.2-.1-.6c.3-.1.2-.5.3-.8 0-.3.2-.6.1-1 .1-.2.4-.2.4-.4Zm-9.2 33.2h-1v-1.4h-.7v3.3h.7v-1.4h1v1.4h.7v-3.3h-.7v1.4Zm5.8-.6c-.3 0-.5.1-.6.4a.5.5 0 0 0-.5-.4c-.3 0-.4.1-.6.3v-.2h-.6v2.4h.6v-1.8l.3-.1h.2v1.9h.7V791.2c0-.2.1-.2.3-.2h.2v1.9h.7v-1.6c0-.6-.3-.9-.7-.9Zm1.6-2.8h.4v-.6H309.3v-1.4h.3v-.5h-.4v-.6h-.6v.6h-.3v.5h.3v1.3c0 .4.2.7.6.7Zm-10-2.6c-.3 0-.5.1-.6.4a.5.5 0 0 0-.6-.4c-.2 0-.4.1-.5.3v-.2h-.7v2.4h.7v-1.7c0-.2.1-.2.3-.2h.2v1.9h.7V785.8c0-.2.1-.2.2-.2h.2v1.9h.7V786c0-.6-.2-.9-.6-.9Zm10.8 2.5h.6v-2.4h-.6v2.4Zm.3-3.4-.3.1v.5h.5l.1-.3v-.2l-.3-.1Zm-3.1 2a1 1 0 0 0-.7.2c-.2 0-.3.3-.3.6 0 .2 0 .3.2.5l.5.2c.3 0 .4 0 .5-.3v.2h.7v-1.7l-.3-.6a.9.9 0 0 0-.6-.2 1 1 0 0 0-.7.3l-.2.5h.6c0-.2.1-.3.3-.3l.1.1v.4h-.1Zm.2.8-.1.1h-.2c-.2 0-.2 0-.2-.2v-.3h.5v.4Zm-9.5 4.6-.3-.2-.1-.2v-.1l.2-.1c.2 0 .3 0 .3.3h.6c0-.2 0-.4-.2-.6a1 1 0 0 0-.7-.2c-.3 0-.4 0-.6.2-.2.2-.2.3-.2.6l.1.4.6.3.3.2v.2c0 .1 0 .2-.2.2h-.2v-.3h-.7l.1.4.3.3h.5l.7-.1.2-.6-.1-.4-.6-.3Zm-6.5-2h-.2l-.1.3v.3h.6v-.5l-.3-.1Zm-.3 3.4h.7v-2.4h-.7v2.4Zm20.2-3.4h-.3v.6h.6v-.5l-.3-.1Zm-20.9 2.9v-1.5h.3v-.4h-.3v-.6h-.6v.6h-.3v.4h.3v1.4c0 .4.2.7.6.7h.3v-.6H290.5Zm.6-7.4c-.3 0-.6.1-.8.4l-.2.8v.2c0 .4 0 .7.2.9.2.2.5.3.8.3.3 0 .5-.1.7-.3.2-.2.3-.5.3-1 0-.4-.1-.7-.3-1a1 1 0 0 0-.7-.3Zm.3 1.5c0 .4 0 .6-.3.6-.2 0-.4-.3-.4-.7v-.2l.1-.5.3-.1.2.1.1.5v.3Zm-2.1 4.7c0-.2 0-.4-.2-.6a.9.9 0 0 0-.7-.2 1 1 0 0 0-.6.2l-.3.6h.7c0-.2 0-.3.2-.3h.2v.5h-.2a1 1 0 0 0-.7.2l-.2.6c0 .3 0 .4.2.6l.5.2c.2 0 .4-.1.5-.3v.2h.7l-.1-.5v-1.2Zm-.7 1.1v.1h-.3c-.1 0-.2 0-.2-.2l.1-.3h.4v.4Zm22-1c0-.3 0-.5-.2-.7a.9.9 0 0 0-.7-.2 1 1 0 0 0-.6.2l-.3.6h.7c0-.2 0-.3.2-.3h.2v.5h-.2l-.7.2-.2.6c0 .3 0 .4.2.6l.5.2c.2 0 .4-.1.5-.3v.2h.7l-.1-.5v-1.2Zm-.7 1v.1h-.3c-.1 0-.2 0-.2-.2l.1-.3h.4v.4Zm1.2.6h.6v-2.4h-.6v2.4Zm-16.5-7.8v1.6c0 .3 0 .5.2.7l.5.2.6-.3v.2h.6v-2.4h-.7v1.8l-.3.1c-.1 0-.2 0-.2-.3V785h-.7Zm1.3 5.3c-.3 0-.4.1-.6.3v-.2h-.6v2.4h.6v-1.8l.3-.1h.2v1.9h.7v-1.6c0-.6-.2-.9-.6-.9Zm-2.6 0c-.3 0-.6.1-.7.3-.2.2-.3.5-.3 1 0 .4 0 .7.3 1 .1.2.4.3.7.3.3 0 .6-.1.7-.3.2-.3.3-.6.3-1 0-.5 0-.8-.3-1a.9.9 0 0 0-.7-.3Zm.3 1.5c0 .4 0 .5-.3.5-.2 0-.4-.2-.4-.6v-.2l.1-.5.3-.1.3.1v.8Zm-.5-6.2.3-.1h.2v.4h.7c0-.3-.1-.5-.3-.7a.8.8 0 0 0-.6-.3c-.3 0-.6.1-.7.3-.2.2-.3.5-.3 1v.1c0 .4.1.7.3.9.1.2.4.3.7.3.3 0 .5-.1.6-.3.2-.1.3-.3.3-.6h-.6c0 .2-.1.4-.3.4l-.2-.1-.1-.2v-1.1Z"/></g><circle cx="536" cy="786" r="10" fill="#E13C2E"/><circle cx="542.8" cy="786" r="9.8" stroke="#1E3446" stroke-width=".3"/></g><defs><clipPath id="a"><path fill="#fff" d="M0 0H595V842H0z"/></clipPath><clipPath id="b"><path fill="#fff" d="M0 0H595V333H0z"/></clipPath><clipPath id="e"><path fill="#fff" d="M0 0H183V54H0z" transform="translate(364 64)"/></clipPath><clipPath id="f"><path fill="#fff" d="M0 0H142.7V28.9H0z" transform="translate(48 754.5)"/></clipPath><clipPath id="g"><path fill="#fff" d="M0 0H43.2V48.3H0z" transform="translate(206.3 744.8)"/></clipPath><clipPath id="h"><path fill="#fff" d="M0 0H53.3V49.9H0z" transform="translate(265.1 744)"/></clipPath><clipPath id="j"><path fill="#fff" d="M0 0H150V44H0z"/></clipPath><linearGradient id="d" x1="297.5" x2="297.5" y1="0" y2="333" gradientUnits="userSpaceOnUse"><stop stop-color="#D6C9C0"/><stop offset="1" stop-color="#D6C9C0" stop-opacity="0"/></linearGradient><pattern id="c" width="1" height="1" patternTransform="matrix(47.7 0 0 27.984 0 159.9)" patternUnits="userSpaceOnUse" preserveAspectRatio="none" viewBox="0 0 159 93.3"><use xlink:href="#i" transform="translate(-159)"/><g id="i" fill="#1E3446" clip-path="url(#j)"><path d="M139.8 15.6h-1.1v3.7h3.5l-.9-.5a4.3 4.3 0 0 1-1.5-3.2ZM122.1 5.3v12.4l-.1 1-.5.6h2a14.7 14.7 0 0 0 0-2.1V8l.5.7.5.6 7.5 10h2.7V6l.1-1.5c0-.3.2-.6.4-.8.3-.2 5.5-.3 6-.3v-1h-9.5v1.2H133.4v1.8l-.1 11.5a27.2 27.2 0 0 1-1.4-1.8l-8.3-11h-3.1v1.3h1.6ZM116.7 18c-.3.5-.7.9-1.2 1-.2.2-.4.3-.7.3h3.3V16h-1c0 .9-.1 1.6-.4 2Z"/><path d="M138.8 6.6a4.5 4.5 0 0 0 .2 3.4c.3.5.7 1 1.2 1.4.5.5 1 .8 1.6 1.1a31 31 0 0 0 3.8 1.8c.6.3 1 .7 1.4 1.2.4.4.6 1 .6 1.6 0 .5-.1 1-.4 1.4-.2.4-.6.6-1 .8h2.7l.4-.5c.5-.7.7-1.5.7-2.4a4.1 4.1 0 0 0-1.7-3.4l-1.6-1c-.6-.4-1.2-.6-1.9-.9l-2-1a5 5 0 0 1-1.4-1.1c-.3-.4-.5-1-.5-1.6 0-.6.3-1.2.8-1.7a3 3 0 0 1 2.1-.8c.9 0 1.6.2 2.2.6.6.4 1 .9 1.4 1.5.3.7.5 1.4.6 2.2h1V4h-1.4l.1 1c-.6-.4-1.3-.7-2-.9a9 9 0 0 0-2-.3c-1 0-1.9.2-2.5.5a4 4 0 0 0-2.4 2.4ZM95.7 11.3h-1a29 29 0 0 1-.9 7.2c-.3.4-.8.7-1.4.8h3.2v-8ZM83.9 5.5a52 52 0 0 0 0 1.8V17l-.1 1.4c0 .4-.2.7-.4.9h-.1 3l.1-.6V6.5c.1-.4.2-.7.5-.9.2-.2 2.4-.3 2.9-.3v-1h-9.6v1.3l2.8-.1h1-.1ZM99.1 3.2a51.8 51.8 0 0 0 0 1.8v12c0 .6 0 1-.2 1.4 0 .4-.2.7-.4.9h3V5.7l.1-1.5c.1-.4.3-.6.5-.8.2-.2 2.5-.3 3-.4V2h-8.7v1.3h2.8v-.1ZM105 5.4H107.5a52.3 52.3 0 0 0 0 1.8V17l-.1 1.4c0 .4-.2.7-.5.9h3v-6.7h2.9c.4.1.7.3 1 .6l.2 1.5h1V9.5h-1.3l.2 2h-4V7.8l.2-1.5c0-.4.2-.7.5-.8a2 2 0 0 1 1.1-.3h1.7c.5 0 1 0 1.5.2.4.1.8.5 1.1 1 .3.4.4 1 .4 2h1V4H105v1.3ZM131.7 22.4H133.4V24l-.1 9.8a27.3 27.3 0 0 1-1.4-1.9l-8.3-10.9h-3.1v1.3h1.6V36.1l-.1 1-.5.7c-.2.2-3.3.3-3.8.3v1h11.5v-1.3h-5.7a18.4 18.4 0 0 0 0-2.2V25l.5.7.5.6 6.7 9h3.5V24.8l.1-1.5c0-.4.2-.6.4-.8.3-.2 2.4-.3 3-.3v-1h-6.5v1.2ZM26.4 36.4v-.8l.1-1.1V19.9l.5-.8c.3-.2 2.4-.3 3-.4v-1h-9.5V19h3.6v.7l-.1 1v.4h-8.6A225.3 225.3 0 0 1 10.7 33l-.6 1.6a48.6 48.6 0 0 0-1.7-4l-4-9.4h-4v1.3a21.5 21.5 0 0 1 1.7 0v.8l-.1 1-.4 13.6-.1 1.2c0 .3-.3.6-.5.7a2 2 0 0 1-1 .3v1h7.7v-1.3H4l-.9.1a13.3 13.3 0 0 0 .1-2v-5.5l.1-2.1V28l.1-1.7V24A48.7 48.7 0 0 0 5.1 29l2 4.4L9 38h1.2l5-12.9.2-.4.1-.3.1 1v1l.1.9.4 6.9v1.2h2.4v-.6l-.6-10.1c0-.7 0-1.2.2-1.5 0-.4.3-.6.5-.7l5.4-.2V34l-.1 1.4c0 .4-.2.7-.4.9-.3.2-.6.3-1.2.3v1h9v-1.3h-4l-.9.1ZM67.8 36.3a23.9 23.9 0 0 1-1.8.1l.3-.8.3-1 .7-2 5.7-.1h.1l.7 2c.2.2.2.6.3 1 0 .2 0 .5-.2.7-.2.3-.6.4-1.1.4v1h5.7v-1.3a21.4 21.4 0 0 1-1.5.1c0-.3 0-.8-.2-1.3l-.5-1.2-.5-1.4h3.7v-1h-4.1L71 20.6h-.9l-4.8 13a58.1 58.1 0 0 1-1.2 2.5c-.2.3-.6.4-1 .4v1h4.6v-1.3Zm1.4-9.1.6-1.6.4-1.3a49.6 49.6 0 0 0 1 3l1.5 4h-5l1.5-4.1ZM148.3 30l-1.6-1a25.3 25.3 0 0 1-3.8-1.8 5 5 0 0 1-1.5-1.2c-.3-.4-.5-1-.5-1.6 0-.7.3-1.2.8-1.7a3 3 0 0 1 2.1-.8c.9 0 1.6.2 2.2.6.6.4 1 .9 1.3 1.5.4.7.6 1.4.7 2.2h1V21h-1.4l.1 1-2-1a9 9 0 0 0-2-.2c-1 0-1.9.2-2.5.4a4 4 0 0 0-2.6 4 4.3 4.3 0 0 0 1.6 3.3l1.6 1.1a31 31 0 0 0 3.8 1.8c.6.3 1 .7 1.4 1.1.4.5.6 1 .6 1.7 0 .5-.1 1-.4 1.4-.3.4-.7.7-1.2 1a4.7 4.7 0 0 1-4.7-.7 4.3 4.3 0 0 1-1.5-3.2h-1.1v5.2h1.5v-1a8 8 0 0 0 4 1.2c1.3 0 2.3-.2 3.2-.6.8-.4 1.4-1 2-1.6.4-.7.6-1.5.6-2.4a4.1 4.1 0 0 0-1.7-3.4Z"/><path d="m62.5 38.7-.8-1.3-3.6-5.3-.8-1a3 3 0 0 0-.9-.9c1.1-.2 2-.6 2.6-1a4.3 4.3 0 0 0 1.8-3.6A4 4 0 0 0 60 23a4.4 4.4 0 0 0-2.2-1.5c-1-.4-2.2-.5-3.7-.5a129.2 129.2 0 0 0-5.8 0v1.3h1.8l-.1.7v6.4H41v1.3H42.7V35.5a8.4 8.4 0 0 1-3.8 1c-1.2 0-2.3-.3-3.2-1a6.2 6.2 0 0 1-2-2.6 9.8 9.8 0 0 1-.7-3.8c0-1 .1-2 .4-2.9.3-.9.7-1.6 1.2-2.3.5-.6 1-1.1 1.8-1.5.6-.4 1.4-.6 2.2-.6.9 0 1.7.2 2.4.5.7.4 1.2.9 1.7 1.5.4.7.7 1.5.8 2.4h1V21h-1.4l.1 1-1.5-.6a10.1 10.1 0 0 0-3.3-.6 7.5 7.5 0 0 0-6.2 2.8 10.5 10.5 0 0 0-1 10.5 7.1 7.1 0 0 0 2.8 3c1.2.7 2.6 1 4.2 1a10.7 10.7 0 0 0 3.5-.6l1.5-.4 1.2-.2h.6v-4.5l.2-.8.5-.7 4.3-.2v4.6h2.5v-4.7H54l.8 1 .6 1 3.8 5.7a31.2 31.2 0 0 0 2 2.5h25.1v-1c-.4 0-22.6-.1-23-.3l-.8-.8ZM54 29.4h-1.4v-4.7l.1-1.4c0-.3.2-.6.5-.8.2-.2.6-.3 1-.3.6 0 1.1 0 1.6.2.5.1 1 .3 1.3.6l.8 1c.2.5.2 1 .2 1.7a4 4 0 0 1-.4 2.1A3 3 0 0 1 56 29a6 6 0 0 1-2.2.4ZM98.1 42V24.9l.2-1.5c0-.4.2-.6.4-.8.2-.2 2.4-.3 2.9-.3v-1H93v1.2h2.7a51.9 51.9 0 0 0 0 1.8v15.4l-.1 1.5c0 .4-.2.6-.5.8-.2.2-.6.3-1 .4v1h9.2V42H98Z"/><path d="M118.5 29.4a9.4 9.4 0 0 0-2-5.8 7.4 7.4 0 0 0-2.7-2c-1-.6-2.3-.9-3.7-.9a7.8 7.8 0 0 0-7.8 5.7 9.4 9.4 0 0 0 0 6c.3 1 .8 2 1.5 2.8a7 7 0 0 0 2.6 2c1 .6 2.3.8 3.8.8a7.7 7.7 0 0 0 6.2-2.8 9.4 9.4 0 0 0 2-5.8Zm-3.2 2.9c-.2.8-.5 1.6-1 2.2a5 5 0 0 1-1.6 1.7c-.7.4-1.5.6-2.4.6-1 0-1.8-.3-2.6-.7a5.8 5.8 0 0 1-1.7-2 11 11 0 0 1-1-7.6 8 8 0 0 1 .9-2.3c.4-.7 1-1.2 1.7-1.6.6-.5 1.4-.7 2.3-.7 1 0 1.8.2 2.5.7.7.4 1.3 1 1.8 1.7a12 12 0 0 1 1.1 8ZM86.3 36.4V34.5l.1-12.3h1.7a3 3 0 0 1 1.8.4c.4.3.7.8 1 1.4l.2 2.2h1.2l-.2-5h-14v5h1c0-1.3.2-2.3.7-3 .4-.6 1.1-1 2.1-1h2V34l-.1 1.4c0 .4-.2.7-.4.9-.3.2-.6.3-1.2.3v1h11.5v-1.3h-6.4l-1 .1ZM16.3 41v-1.3H55V41H16.3ZM34.4 18.8v-1.3h45.1v1.3H34.4ZM132 39.3v-1.7h3v1.7h-3Z"/></g><use xlink:href="#i" transform="translate(-79.5 46.6)"/><use xlink:href="#i" transform="translate(79.5 46.6)"/></pattern></defs></svg>